<svg width="78" height="82" viewBox="0 0 78 82" fill="none" xmlns="http://www.w3.org/2000/svg">
<path d="M69.8212 14.7357C67.8402 17.3923 63.8277 25.1817 59.08 26.1375C58.2396 26.2965 55.8111 25.1718 54.9623 24.8454C53.7166 24.3804 51.0214 23.9059 46.2964 25.3641C45.6924 25.5503 45.0501 25.5167 44.4411 25.1422C44.2829 25.0493 44.1345 24.9365 43.996 24.8037C43.485 24.3236 43.1591 23.5402 43.6331 22.3594C43.9075 21.6708 44.3512 21.1674 44.8574 20.8808C46.388 20.0197 50.3966 17.9007 52.78 17.8147" stroke="#1D1C1C" stroke-width="3" stroke-miterlimit="10"/>
<path d="M44.1513 21.1504C44.1513 21.1504 40.5032 25.6453 38.3799 27.2035C37.6001 27.7679 36.6454 27.409 36.2763 26.2684C35.9589 25.2801 36.0153 23.7759 37.4972 21.73C37.4972 21.73 42.0249 16.1069 44.8873 13.4607C45.3306 13.051 45.8272 12.7181 46.3686 12.4508C48.7999 11.2505 56.2124 7.99287 60.9033 10.3084C61.8986 10.8002 62.9822 10.851 64.0029 10.3392C65.0868 9.79423 70.0381 4.56365 70.9392 3.61608" stroke="#1D1C1C" stroke-width="3" stroke-miterlimit="10"/>
<path d="M74.6123 35.1443L57.758 28.4746" stroke="#1D1C1C" stroke-width="3" stroke-miterlimit="10" stroke-linecap="round"/>
<path d="M34.4979 30.7645C34.4979 30.7645 32.2713 34.2462 27.7866 28.7841C27.0797 27.9295 26.4948 26.8705 25.9707 25.7372C23.8743 21.2702 17.0978 12.838 7.24558 24.592C6.78358 25.1432 6.38564 25.7595 6.08952 26.4149C3.86774 31.3323 3.06118 37.5451 4.35143 43.2197C5.60667 48.7561 8.87272 54.1253 16.7819 53.9396C17.5253 53.9396 18.2565 54.051 18.9877 54.274C21.9092 55.1683 27.6432 57.4402 28.4035 50.5459C28.4649 49.9896 28.4396 49.4241 28.381 48.8675L27.7866 43.2197" stroke="#1D1C1C" stroke-width="3" stroke-miterlimit="10" stroke-linecap="round"/>
<path d="M35.4745 49.8462C35.4745 49.8462 32.739 70.5373 46.2892 70.4542C47.518 70.4466 48.7684 70.4457 49.9439 70.8036C52.8498 71.6883 58.9079 73.9498 65.2613 78.8505" stroke="#1D1C1C" stroke-width="3" stroke-miterlimit="10" stroke-linecap="round"/>
<path d="M47.1956 52.6919L67.5597 69.7842" stroke="#1D1C1C" stroke-width="3" stroke-miterlimit="10" stroke-linecap="round"/>
<path d="M8.23643 55.9524C8.23643 55.9524 -1.51784 69.3352 12.0234 69.298L34.6664 69.3352" stroke="#1D1C1C" stroke-width="3" stroke-miterlimit="10" stroke-linecap="round"/>
</svg>
