<svg width="48" height="48" viewBox="0 0 48 48" fill="none" xmlns="http://www.w3.org/2000/svg">
<mask id="mask0_457_74" style="mask-type:luminance" maskUnits="userSpaceOnUse" x="0" y="0" width="48" height="48">
<path d="M0 48H48V0H0V48Z" fill="white"/>
</mask>
<g mask="url(#mask0_457_74)">
<path d="M47.9986 48V23.3792C44.5795 23.2762 33.4479 25.0991 33.4759 31.6373C33.4922 35.3761 37.1586 40.6565 47.9986 48Z" fill="black"/>
<path d="M38.5227 17.0959C40.4031 17.0959 41.7575 16.5069 43.0505 15.1242L43.1828 14.9828L41.4144 13.1982L41.2716 13.3263C40.4384 14.0874 39.7315 14.5262 38.5992 14.5262C36.9473 14.5262 35.7001 13.1686 35.7001 11.3693C35.7001 9.55508 36.9473 8.2107 38.5992 8.2107C39.5151 8.2107 40.3162 8.56684 41.1966 9.36516L41.3484 9.50203L43.1018 7.48011L42.9695 7.34776C41.7708 6.16819 40.4265 5.64246 38.6155 5.64246C35.3231 5.64246 32.8405 8.1046 32.8405 11.3693V11.4001C32.8405 14.647 35.2833 17.0959 38.5227 17.0959ZM24.7923 12.3544H27.453C28.5571 12.3544 29.1404 12.7371 29.1404 13.4601C29.1404 14.4054 28.2656 14.597 27.5294 14.597H24.7923V12.3544ZM24.7923 8.14128C24.8953 8.14128 27.0582 8.13987 27.0582 8.13987C28.0167 8.13987 28.5455 8.51237 28.5455 9.1854C28.5455 9.93039 27.9933 10.2913 26.9052 10.2913H24.7923V8.14128ZM31.7319 13.7812C31.7319 12.4854 31.1458 11.6608 29.9149 11.0953C30.7203 10.543 31.1353 9.80228 31.1353 8.82024C31.1353 8.00301 30.8777 7.36243 30.3433 6.83078C29.6881 6.1727 28.6719 5.82504 27.4086 5.82504H22.2463V16.9133H27.5294C30.2005 16.9133 31.7319 15.7721 31.7319 13.7812ZM15.8826 17.0959C17.7642 17.0959 19.1189 16.5069 20.4118 15.1242L20.5442 14.9828L18.7758 13.1982L18.633 13.3263C17.798 14.0874 17.0929 14.5262 15.9591 14.5262C14.307 14.5262 13.0614 13.1686 13.0614 11.3693C13.0614 9.55508 14.307 8.2107 15.9591 8.2107C16.8765 8.2107 17.6773 8.56684 18.5565 9.36516L18.7081 9.50203L20.4646 7.48011L20.3292 7.34776C19.1322 6.16819 17.7879 5.64246 15.9752 5.64246C12.6828 5.64246 10.2019 8.1046 10.2019 11.3693V11.4001C10.2019 14.647 12.6433 17.0959 15.8826 17.0959ZM8.68829 5.82504H5.93623V16.9133H8.68829V5.82504ZM47.9993 6.54068V19.5018C27.0805 20.4664 16.2684 25.0946 10.8557 30.3677C3.34615 37.6864 6.23365 46.2521 6.93739 48H6.53981C2.94264 48 -0.000732422 45.0562 -0.000732422 41.459V6.54068C-0.000732422 2.94328 2.94264 -0.00169373 6.53981 -0.00169373H41.4559C45.0545 -0.00169373 47.9993 2.94328 47.9993 6.54068Z" fill="black"/>
</g>
</svg>
