<svg width="78" height="84" viewBox="0 0 78 84" fill="none" xmlns="http://www.w3.org/2000/svg">
<path d="M30.9685 29.0548C28.5912 27.1499 26.7407 24.8827 25.6466 22.3774C24.5524 19.8721 23.1882 17.0458 22.8505 13.8158C22.6614 12.0248 22.7559 10.503 21.1215 8.86727C19.8248 7.56284 17.5421 7.5939 15.7186 9.74723C14.8946 10.7204 15.0972 11.973 15.0972 13.1325C15.0972 16.7973 15.7996 19.8203 17.3125 23.8371C18.3931 26.7048 19.7573 28.1334 20.4056 28.9306C20.8379 29.4689 21.6754 30.5041 22.3642 31.115C28.4291 36.4879 27.4431 38.0615 27.8213 43.6105L26.6191 77.6601C26.5516 79.4615 27.8078 81.2214 29.969 81.9357C31.2387 82.3602 32.738 82.5051 34.2238 81.8633C35.7772 81.18 36.6146 79.8238 36.5741 78.4469C36.4525 74.4612 36.1824 63.6324 36.6281 58.249C36.7092 57.3277 38.141 55.2157 41.0451 56.7997C42.1932 57.4312 42.8416 58.4768 42.8416 59.5638V77.8568C42.8416 79.7824 44.3679 81.6045 46.7723 82.1738C47.9879 82.4637 49.3522 82.4223 50.6084 81.6252C51.743 80.9005 52.2698 79.7721 52.2428 78.654C52.0537 72.8255 51.3648 49.0249 52.2833 37.7924C52.6885 32.8128 60.3473 34.3139 63.8727 19.9238L64.1969 14.3955C64.1969 12.8323 63.7512 9.51948 62.1438 8.54634C60.5364 7.57319 57.8889 6.66217 56.2004 9.34349C55.7142 10.1199 55.5251 13.8158 55.6061 14.6647C55.9303 18.0189 53.58 24.4065 51.8376 26.3321C51.8376 26.3321 49.4467 31.6222 42.3958 30.939L34.9802 30.5559C33.5349 30.4834 32.1842 29.9969 31.1846 29.1997L30.9685 29.0341V29.0548Z" stroke="#1D1C1C" stroke-width="2.5" stroke-miterlimit="10"/>
<path d="M27.6321 7.24188H10.4911" stroke="#1D1C1C" stroke-width="2.5" stroke-miterlimit="10"/>
<path d="M36.4527 7.24188H34.4941" stroke="#1D1C1C" stroke-width="2.5" stroke-miterlimit="10"/>
<path d="M3.62949 7.24188H1.04956" stroke="#1D1C1C" stroke-width="2.5" stroke-miterlimit="10"/>
<path d="M10.4912 1.33057H3.62939V13.6708H10.4912V1.33057Z" stroke="#1D1C1C" stroke-width="2.5" stroke-miterlimit="10"/>
<path d="M34.494 1.33057H27.6321V13.6708H34.494V1.33057Z" stroke="#1D1C1C" stroke-width="2.5" stroke-miterlimit="10"/>
<path d="M68.749 7.24188H51.6215" stroke="#1D1C1C" stroke-width="2.5" stroke-miterlimit="10"/>
<path d="M77.5829 7.24188H75.6243" stroke="#1D1C1C" stroke-width="2.5" stroke-miterlimit="10"/>
<path d="M44.7463 7.24188H42.1799" stroke="#1D1C1C" stroke-width="2.5" stroke-miterlimit="10"/>
<path d="M51.608 1.33057H44.7462V13.6708H51.608V1.33057Z" stroke="#1D1C1C" stroke-width="2.5" stroke-miterlimit="10"/>
<path d="M75.6107 1.33057H68.7489V13.6708H75.6107V1.33057Z" stroke="#1D1C1C" stroke-width="2.5" stroke-miterlimit="10"/>
<path d="M39.6269 28.1231C43.5508 28.1231 46.7318 25.6851 46.7318 22.6776C46.7318 19.6702 43.5508 17.2322 39.6269 17.2322C35.7029 17.2322 32.5219 19.6702 32.5219 22.6776C32.5219 25.6851 35.7029 28.1231 39.6269 28.1231Z" stroke="#1D1C1C" stroke-width="2.5" stroke-miterlimit="10"/>
</svg>
