<svg width="80" height="85" viewBox="0 0 80 85" fill="none" xmlns="http://www.w3.org/2000/svg">
<path d="M2.05212 78.0035C2.05212 78.0035 4.49688 27.0671 10.3912 20.4577C13.3954 17.1034 32.4355 15.4263 32.4355 2.01819" stroke="#1D1C1C" stroke-width="2.5" stroke-miterlimit="10"/>
<path d="M12.9706 78.0034C12.9706 78.0034 17.798 50.0511 20.9265 49.6814" stroke="#1D1C1C" stroke-width="2.5" stroke-miterlimit="10"/>
<path d="M18.316 32.7477C18.316 32.7477 25.8057 66.6422 18.316 83.0258" stroke="#1D1C1C" stroke-width="2.5" stroke-miterlimit="10"/>
<path d="M78.5855 78.0035C78.5855 78.0035 76.1407 27.0671 70.2464 20.4577C67.2422 17.1034 48.2021 15.4263 48.2021 2.01819" stroke="#1D1C1C" stroke-width="2.5" stroke-miterlimit="10"/>
<path d="M67.6773 78.0034C67.6773 78.0034 62.85 50.0511 59.7215 49.6814" stroke="#1D1C1C" stroke-width="2.5" stroke-miterlimit="10"/>
<path d="M62.3216 32.7477C62.3216 32.7477 54.8319 66.6422 62.3216 83.0258" stroke="#1D1C1C" stroke-width="2.5" stroke-miterlimit="10"/>
<path d="M40.3188 29.8984C42.1897 29.8984 43.7063 28.5784 43.7063 26.9499C43.7063 25.3215 42.1897 24.0014 40.3188 24.0014C38.448 24.0014 36.9314 25.3215 36.9314 26.9499C36.9314 28.5784 38.448 29.8984 40.3188 29.8984Z" stroke="#1D1C1C" stroke-width="2.5" stroke-miterlimit="10"/>
<path d="M40.3188 46.4895C43.3396 46.4895 45.7884 44.358 45.7884 41.7286C45.7884 39.0992 43.3396 36.9677 40.3188 36.9677C37.298 36.9677 34.8492 39.0992 34.8492 41.7286C34.8492 44.358 37.298 46.4895 40.3188 46.4895Z" stroke="#1D1C1C" stroke-width="2.5" stroke-miterlimit="10"/>
<path d="M40.3188 63.4593C43.8545 63.4593 46.7207 60.9645 46.7207 57.8869C46.7207 54.8093 43.8545 52.3145 40.3188 52.3145C36.7831 52.3145 33.9168 54.8093 33.9168 57.8869C33.9168 60.9645 36.7831 63.4593 40.3188 63.4593Z" stroke="#1D1C1C" stroke-width="2.5" stroke-miterlimit="10"/>
<path d="M41.189 83.0259C46.0177 83.0259 49.9322 79.6187 49.9322 75.4157C49.9322 71.2126 46.0177 67.8054 41.189 67.8054C36.3604 67.8054 32.4459 71.2126 32.4459 75.4157C32.4459 79.6187 36.3604 83.0259 41.189 83.0259Z" stroke="#1D1C1C" stroke-width="2.5" stroke-miterlimit="10"/>
</svg>
