<svg width="80" height="83" viewBox="0 0 80 83" fill="none" xmlns="http://www.w3.org/2000/svg">
<path d="M61.2638 54.9487C61.2638 54.9487 68.9331 46.1869 73.4914 43.1296C75.165 42.0046 77.3014 42.7193 78.1973 44.9163C78.9751 46.8222 78.9751 49.7472 75.8542 53.7707C75.8542 53.7707 64.6899 66.6619 58.7829 71.0824C58.7829 71.0824 37.9606 81.578 25.2309 76.1648C22.9961 75.2118 20.6234 75.1192 18.4083 76.1251C16.0652 77.1839 13.1904 78.7324 11.2805 80.5853C9.86279 81.9618 7.86424 81.2736 7.05694 79.1956L2.50853 67.456C1.63232 65.206 2.19349 62.4266 3.78839 61.0633C8.9472 56.6692 20.4364 48.0398 31.0789 47.8943C32.9494 47.8678 34.8003 48.4501 36.5527 49.3501C39.1223 50.6737 44.8423 52.5531 55.5832 51.4016C56.9615 51.256 58.3595 51.5737 59.5606 52.5001C59.8757 52.7384 60.171 53.0031 60.4368 53.3207C61.3918 54.4325 61.8545 56.0207 60.4664 58.1251C59.6492 59.3692 58.5269 60.1501 57.3258 60.5207C53.7225 61.6325 44.3205 64.2927 39.0927 63.5913" stroke="#1D1C1C" stroke-width="2.5" stroke-miterlimit="10"/>
<path d="M11.6348 19.8621L20.1705 49.9856" stroke="#1D1C1C" stroke-width="2.5" stroke-miterlimit="10"/>
<path d="M33.5106 12.3974L32.0339 47.9208" stroke="#1D1C1C" stroke-width="2.5" stroke-miterlimit="10"/>
<path d="M50.5818 18.1283L46.6143 51.7061" stroke="#1D1C1C" stroke-width="2.5" stroke-miterlimit="10"/>
<path d="M10.296 19.8754C12.5633 19.8754 14.4014 17.4044 14.4014 14.3563C14.4014 11.3081 12.5633 8.83716 10.296 8.83716C8.02866 8.83716 6.19061 11.3081 6.19061 14.3563C6.19061 17.4044 8.02866 19.8754 10.296 19.8754Z" stroke="#1D1C1C" stroke-width="2.5" stroke-miterlimit="10"/>
<path d="M33.5105 12.3973C35.7779 12.3973 37.6159 9.92635 37.6159 6.87823C37.6159 3.83012 35.7779 1.35913 33.5105 1.35913C31.2432 1.35913 29.4052 3.83012 29.4052 6.87823C29.4052 9.92635 31.2432 12.3973 33.5105 12.3973Z" stroke="#1D1C1C" stroke-width="2.5" stroke-miterlimit="10"/>
<path d="M51.4582 17.9163C53.7255 17.9163 55.5636 15.4453 55.5636 12.3972C55.5636 9.3491 53.7255 6.87811 51.4582 6.87811C49.1908 6.87811 47.3528 9.3491 47.3528 12.3972C47.3528 15.4453 49.1908 17.9163 51.4582 17.9163Z" stroke="#1D1C1C" stroke-width="2.5" stroke-miterlimit="10"/>
</svg>
