<svg width="80" height="84" viewBox="0 0 80 84" fill="none" xmlns="http://www.w3.org/2000/svg">
<path d="M57.4623 21.7502C61.5788 21.7502 64.9158 17.1906 64.9158 11.566C64.9158 5.9414 61.5788 1.38177 57.4623 1.38177C53.3457 1.38177 50.0087 5.9414 50.0087 11.566C50.0087 17.1906 53.3457 21.7502 57.4623 21.7502Z" stroke="#1D1C1C" stroke-width="2.5" stroke-miterlimit="10"/>
<path d="M64.9158 24.2196C64.9158 24.2196 39.3297 32.8679 35.8191 37.8182C35.3349 38.5035 35.1447 39.4368 35.2138 40.1103C35.4819 42.7213 41.82 41.9888 43.558 41.1618C43.6964 41.1027 46.4029 40.1339 46.5499 40.1103C49.5244 39.6613 63.368 29.8433 64.8207 52.5393C64.9331 54.2642 63.9473 55.7647 62.6849 55.8001C55.7328 55.9773 35.0582 57.0643 36.433 63.5505C36.6492 64.5784 37.3496 65.2755 38.1192 65.4527C41.0418 66.1379 51.1067 67.8747 69.7926 65.3936C70.8735 65.2518 71.9111 64.6729 72.7498 63.7277C75.2142 60.9631 80.1861 55.233 75.9838 41.5635C75.9838 41.5635 74.0469 33.5768 74.0209 33.4586C72.6374 27.9057 71.1415 21.8094 64.9244 24.2078L64.9158 24.2196Z" stroke="#1D1C1C" stroke-width="2.5" stroke-miterlimit="10"/>
<path d="M24.0508 45.3323L35.2139 40.1221" stroke="#1D1C1C" stroke-width="2.5" stroke-miterlimit="10"/>
<path d="M16.3206 51.0859V82.2884H20.8169V74.0063H74.1075V82.2884H78.2666V66.2678H73.7616" stroke="#1D1C1C" stroke-width="2.5" stroke-miterlimit="10"/>
<path d="M32.9312 66.2677H21.1628V51.0859" stroke="#1D1C1C" stroke-width="2.5" stroke-miterlimit="10"/>
<path d="M14.3663 48.2858C14.3663 48.2858 4.83744 45.8165 7.60444 61.4118" stroke="#1D1C1C" stroke-width="2.5" stroke-miterlimit="10"/>
<path d="M7.60449 77.4564C10.8471 77.4564 13.4757 73.8648 13.4757 69.4343C13.4757 65.0037 10.8471 61.4121 7.60449 61.4121C4.36191 61.4121 1.73328 65.0037 1.73328 69.4343C1.73328 73.8648 4.36191 77.4564 7.60449 77.4564Z" stroke="#1D1C1C" stroke-width="2.5" stroke-miterlimit="10"/>
<path d="M18.7676 51.5113C21.6902 51.5113 24.0595 48.2741 24.0595 44.2807C24.0595 40.2874 21.6902 37.0502 18.7676 37.0502C15.845 37.0502 13.4757 40.2874 13.4757 44.2807C13.4757 48.2741 15.845 51.5113 18.7676 51.5113Z" stroke="#1D1C1C" stroke-width="2.5" stroke-miterlimit="10"/>
</svg>
