<svg width="80" height="83" viewBox="0 0 80 83" fill="none" xmlns="http://www.w3.org/2000/svg">
<path d="M14.0069 81.7443V73.4371C14.0069 72.1985 13.4992 71.0003 12.5721 70.084C9.15047 66.7208 1.74437 58.0109 1.73334 53.5703C1.73334 50.7005 3.55451 31.8508 4.95626 28.1654C7.40657 21.721 12.7045 25.8998 11.2697 48.0624" stroke="#1D1C1C" stroke-width="2.5" stroke-miterlimit="10"/>
<path d="M18.6538 60.0247L12.241 54.5873C11.0931 53.6206 10.3647 52.3116 10.2101 50.8918C9.95628 48.5658 11.8878 45.7665 17.1858 48.7068C17.1858 48.7068 32.8479 57.6181 32.8479 67.2344V81.7443" stroke="#1D1C1C" stroke-width="2.5" stroke-miterlimit="10"/>
<path d="M65.9933 82.3383V74.0311C65.9933 72.7926 66.501 71.5944 67.4282 70.6781C70.8498 67.3149 78.2559 58.6049 78.2669 54.1644C78.2669 51.2946 76.4457 32.4448 75.044 28.7594C72.5937 22.3151 67.2957 26.4938 68.7306 48.6564" stroke="#1D1C1C" stroke-width="2.5" stroke-miterlimit="10"/>
<path d="M61.3463 60.6188L67.7591 55.1814C68.9069 54.2147 69.6354 52.9057 69.7899 51.486C70.0438 49.1599 68.1123 46.3607 62.8143 49.3009C62.8143 49.3009 47.1522 58.2123 47.1522 67.8285V82.3384" stroke="#1D1C1C" stroke-width="2.5" stroke-miterlimit="10"/>
<path d="M33.466 1.33057H47.3179C48.3112 1.33057 49.106 2.06563 49.106 2.9618V3.42499C49.106 4.33123 49.9117 5.05622 50.894 5.05622H53.7968C54.7902 5.05622 55.5849 5.79128 55.5849 6.68745V8.03674C55.5849 8.94298 54.7792 9.66798 53.7968 9.66798H50.9933C50.011 9.66798 49.2163 10.3829 49.2053 11.2791V11.6718C49.1832 12.5679 48.3885 13.2829 47.4062 13.2829H33.5101C32.5167 13.2829 31.722 12.5478 31.722 11.6516C31.722 10.7555 30.9274 10.0305 29.945 10.0204L25.9716 9.99019C24.9892 9.99019 24.1945 9.25513 24.1945 8.35896V6.61696C24.1945 5.72079 24.9782 4.99581 25.9495 4.98574L29.8788 4.92532C30.828 4.90518 31.6006 4.22046 31.6337 3.34443V2.92152C31.6779 2.04549 32.4726 1.34064 33.4439 1.34064L33.466 1.33057Z" stroke="#1D1C1C" stroke-width="2.5" stroke-miterlimit="10"/>
<path d="M33.466 14.763H47.3179C48.3112 14.763 49.106 15.4981 49.106 16.3942V16.8574C49.106 17.7637 49.9117 18.4887 50.894 18.4887H53.7968C54.7902 18.4887 55.5849 19.2237 55.5849 20.1199V21.4692C55.5849 22.3754 54.7792 23.1004 53.7968 23.1004H50.9933C50.011 23.1004 49.2163 23.8153 49.2053 24.7115V25.1042C49.1832 26.0004 48.3885 26.7153 47.4062 26.7153H33.5101C32.5167 26.7153 31.722 25.9802 31.722 25.0841C31.722 24.1879 30.9274 23.4629 29.945 23.4528L25.9716 23.4226C24.9892 23.4226 24.1945 22.6876 24.1945 21.7914V20.0494C24.1945 19.1532 24.9782 18.4282 25.9495 18.4182L29.8788 18.3578C30.828 18.3376 31.6006 17.6529 31.6337 16.7769V16.3539C31.6779 15.4779 32.4726 14.7731 33.4439 14.7731L33.466 14.763Z" stroke="#1D1C1C" stroke-width="2.5" stroke-miterlimit="10"/>
<path d="M33.466 28.1954H47.3179C48.3112 28.1954 49.106 28.9305 49.106 29.8267V30.2899C49.106 31.1961 49.9117 31.9211 50.894 31.9211H53.7968C54.7902 31.9211 55.5849 32.6561 55.5849 33.5523V34.9016C55.5849 35.8078 54.7792 36.5328 53.7968 36.5328H50.9933C50.011 36.5328 49.2163 37.2477 49.2053 38.1439V38.5366C49.1832 39.4328 48.3885 40.1477 47.4062 40.1477H33.5101C32.5167 40.1477 31.722 39.4127 31.722 38.5165C31.722 37.6203 30.9274 36.8953 29.945 36.8853L25.9716 36.855C24.9892 36.855 24.1945 36.12 24.1945 35.2238V33.4818C24.1945 32.5857 24.9782 31.8607 25.9495 31.8506L29.8788 31.7902C30.828 31.77 31.6006 31.0853 31.6337 30.2093V29.7864C31.6779 28.9104 32.4726 28.2055 33.4439 28.2055L33.466 28.1954Z" stroke="#1D1C1C" stroke-width="2.5" stroke-miterlimit="10"/>
<path d="M33.466 41.6381H47.3179C48.3112 41.6381 49.106 42.3731 49.106 43.2693V43.7325C49.106 44.6387 49.9117 45.3637 50.894 45.3637H53.7968C54.7902 45.3637 55.5849 46.0988 55.5849 46.995V48.3442C55.5849 49.2505 54.7792 49.9755 53.7968 49.9755H50.9933C50.011 49.9755 49.2163 50.6904 49.2053 51.5866V51.9793C49.1832 52.8754 48.3885 53.5904 47.4062 53.5904H33.5101C32.5167 53.5904 31.722 52.8553 31.722 51.9591C31.722 51.063 30.9274 50.338 29.945 50.3279L25.9716 50.2977C24.9892 50.2977 24.1945 49.5626 24.1945 48.6665V46.9245C24.1945 46.0283 24.9782 45.3033 25.9495 45.2932L29.8788 45.2328C30.828 45.2127 31.6006 44.528 31.6337 43.6519V43.229C31.6779 42.353 32.4726 41.6481 33.4439 41.6481L33.466 41.6381Z" stroke="#1D1C1C" stroke-width="2.5" stroke-miterlimit="10"/>
</svg>
