<?xml version="1.0" encoding="UTF-8"?><svg id="Layer_1" xmlns="http://www.w3.org/2000/svg" viewBox="0 0 320.75 345.67"><defs><style>.cls-1{fill:#0f4d96;}.cls-1,.cls-2,.cls-3{stroke-width:0px;}.cls-2{fill:#d40f12;}.cls-3{fill:#f0eeeb;}</style></defs><path class="cls-2" d="m8.59,258.52c1.42-15.65-2.65-30.75-4.72-46.05-3.68-27.16-6.05-54.31-.89-81.47,4.18-22.02,14.11-41.47,28.84-58.32,12.95-14.81,24.68-30.45,35.07-47.16,3.59-5.77,7.97-11.06,12-16.56C86.13-.93,96.61-.67,106.97.67c22.39,2.9,41.08,20.77,45.93,42.84,2.16,9.87-1.53,18.74-4.04,27.8-6.28,22.59-16.8,43.35-28.42,63.54-5.32,9.23-12.83,16.97-19.6,25.17-9,10.9-16.62,22.39-19.54,36.48-.65,3.15-2.54,3.88-5.55,3.15-6.37-1.55-9.18-6.51-10.92-11.94-6.2-19.34-4.59-38,5.77-55.71,1.76-3.01,3.4-6.1,5.05-9.18.61-1.14,1.6-2.39.42-3.64-1.05-1.11-2.46-.68-3.77-.41-7.53,1.57-12.69,6.51-15.28,13.17-4.92,12.68-10.6,25.14-13.53,38.54-1.53,6.99-2.85,14.03-3.3,21.17-1.03,16.3-2.89,32.52-6.58,48.4-3.14,13.52-10.19,25.19-19.98,35.12-1.03,1.05-2.12,2.53-3.76,1.82-1.65-.72-1.23-2.56-1.24-4.01-.04-4.82-.01-9.65-.01-14.47Z"/><path class="cls-1" d="m319.16,96.77c-2.92,15.44-.31,30.87.28,46.29,1.06,27.39.81,54.64-6.93,81.18-6.28,21.52-18.02,39.93-34.3,55.29-14.31,13.5-27.49,27.94-39.43,43.58-4.13,5.4-8.99,10.24-13.53,15.33-8.16,9.15-18.57,7.88-28.75,5.55-22.01-5.03-38.9-24.61-41.6-47.05-1.21-10.03,3.32-18.51,6.69-27.28,8.42-21.88,20.88-41.54,34.39-60.52,6.18-8.68,14.4-15.66,21.92-23.18,10-9.99,18.69-20.69,22.95-34.43.95-3.07,2.91-3.62,5.83-2.61,6.19,2.15,8.52,7.36,9.73,12.93,4.31,19.85.92,38.27-11.08,54.9-2.04,2.83-3.97,5.75-5.91,8.65-.72,1.07-1.82,2.22-.76,3.58.94,1.21,2.39.91,3.72.77,7.64-.84,13.25-5.26,16.47-11.64,6.12-12.15,12.96-24.01,17.17-37.06,2.2-6.81,4.18-13.69,5.32-20.76,2.59-16.12,6-32.09,11.2-47.55,4.43-13.16,12.56-24.1,23.26-33.04,1.13-.94,2.35-2.32,3.92-1.45,1.58.88.98,2.67.85,4.11-.42,4.81-.91,9.61-1.37,14.41Z"/><path class="cls-3" d="m147.42,232.35c-14.33,2.41-27.59-13.94-27.01-26.11.72-15.04,11.78-26.85,26.97-26.86,16.38-.01,25.96,12.25,26.97,26.89.92,13.27-12.92,28.38-26.94,26.08Z"/><path class="cls-3" d="m182.58,144.17c1.83,11.44-9.96,25.39-24.85,25.26-14.62-.12-26.08-11.37-26.2-25.99-.09-11.41,11.26-26.08,25.85-25.26,15.05.84,25.21,10.56,25.2,25.98Z"/><path class="cls-3" d="m172.75,71.38c13.25-.96,20.66,10.08,20.83,20.28.17,10.05-8.48,19.85-19.86,19.75-11.93-.1-21.13-7.94-20.84-22.45.16-8.27,9.48-18.92,19.87-17.58Z"/><path class="cls-3" d="m151.59,258.28c1.83,9.51-9.37,19.74-20.6,19.17-10.82-.55-19.54-9.22-19.4-20.38.14-11.38,8.94-19.91,20.58-19.75,10.89.15,19.93,8.11,19.42,20.95Z"/><path class="cls-3" d="m122.57,291.49c-.34,6.66-7.23,13.15-13.47,12.67-6.02-.46-12.65-7.04-12.38-12.3.37-7.37,7.05-14.02,13.59-13.54,6.73.49,12.59,6.78,12.26,13.17Z"/><path class="cls-3" d="m207.56,56.86c0,7.46-4.39,11.16-12.29,11.72-6.64.47-12.85-5.01-12.83-12.09.02-7.81,7.03-12.65,12.05-12.95,7.19-.43,13.07,5.82,13.07,13.31Z"/><path class="cls-3" d="m205.59,34.4c.43-3.05,2.55-5.04,6.54-4.98,4.26.06,6.48,2.62,6.42,7.02-.07,4.57-3.42,5.34-6.7,5.81-2.98.42-6.37-3.64-6.26-7.84Z"/><path class="cls-3" d="m97.62,314.17c.22,3.87-1.34,6.55-5.36,7.01-3.71.43-6.64-2.53-6.67-6.32-.04-4.13,2.63-6.63,7-6.55,3.59.06,4.98,1.68,5.02,5.87Z"/></svg>